# xmcd
#
# Track frame offsets:
#	150
#	9257
#	23225
#	35842
#	47627
#	63862
#	77315
#	87757
#	102367
#	114180
#	123255
#	134027
#	143657
#	168092
#
# Disc length: 2826 seconds
#
# Revision: 1
# Processed by: cddbd v1.5.2PL0 Copyright (c) Steve Scherf et al.
# Submitted via: EasyCDDAExtractor 16.0.1.1
#
DISCID=a50b080e
DTITLE=Cari Lee And The Saddle-ites - The Road Less Traveled
DYEAR=2003
DGENRE=Hillbilly
TTITLE0=Standing In Your Window
TTITLE1=My San Antonio Baby
TTITLE2=Nobody Loves You (Like Me)
TTITLE3=Mama Told Me
TTITLE4=I'm A Pilgrim Traveler
TTITLE5=Hurry Up
TTITLE6=I'm Gonna Love You
TTITLE7=Come Home To Me
TTITLE8=Move On
TTITLE9=Do You Or Don't You?
TTITLE10=I'm Having A Party All By Myself
TTITLE11=Eeny Meeny Miney Mo
TTITLE12=Tennessee Avenue
TTITLE13=Tennessee Avenu (Video)
EXTD=
EXTT0=
EXTT1=
EXTT2=
EXTT3=
EXTT4=
EXTT5=
EXTT6=
EXTT7=
EXTT8=
EXTT9=
EXTT10=
EXTT11=
EXTT12=
EXTT13=
PLAYORDER=
